<?xml version="1.0" encoding="UTF-8" standalone="no"?>
<svg
   xmlns:dc="http://purl.org/dc/elements/1.1/"
   xmlns:cc="http://creativecommons.org/ns#"
   xmlns:rdf="http://www.w3.org/1999/02/22-rdf-syntax-ns#"
   xmlns:svg="http://www.w3.org/2000/svg"
   xmlns="http://www.w3.org/2000/svg"
   xmlns:sodipodi="http://sodipodi.sourceforge.net/DTD/sodipodi-0.dtd"
   xmlns:inkscape="http://www.inkscape.org/namespaces/inkscape"
   version="1.1"
   id="svg2"
   xml:space="preserve"
   width="1056"
   height="816"
   viewBox="0 0 1056 816"
   sodipodi:docname="Logo ATB systems.ai"><metadata
     id="metadata8"><rdf:RDF><cc:Work
         rdf:about=""><dc:format>image/svg+xml</dc:format><dc:type
           rdf:resource="http://purl.org/dc/dcmitype/StillImage" /></cc:Work></rdf:RDF></metadata><defs
     id="defs6"><clipPath
       clipPathUnits="userSpaceOnUse"
       id="clipPath20"><path
         d="M 0,612 H 792 V 0 H 0 Z"
         id="path18" /></clipPath></defs><sodipodi:namedview
     pagecolor="#ffffff"
     bordercolor="#666666"
     borderopacity="1"
     objecttolerance="10"
     gridtolerance="10"
     guidetolerance="10"
     inkscape:pageopacity="0"
     inkscape:pageshadow="2"
     inkscape:window-width="640"
     inkscape:window-height="480"
     id="namedview4" /><g
     id="g10"
     inkscape:groupmode="layer"
     inkscape:label="Logo ATB systems"
     transform="matrix(1.3333333,0,0,-1.3333333,0,816)"><path
       d="M 395.419,7.838 H 8.313 v 223.166 h 387.106 z"
       style="fill:#00368b;fill-opacity:1;fill-rule:nonzero;stroke:none"
       id="path12" /><g
       id="g14"><g
         id="g16"
         clip-path="url(#clipPath20)"><g
           id="g22"
           transform="translate(395.5146,377.0596)"><path
             d="m 0,0 0.744,1.414 c 0.838,-0.596 2.177,-1.023 3.46,-1.023 1.656,0 2.345,0.502 2.345,1.34 0,2.213 -6.233,0.296 -6.233,4.222 0,1.768 1.581,2.959 4.112,2.959 1.284,0 2.734,-0.335 3.591,-0.894 L 7.256,6.605 C 6.362,7.181 5.376,7.386 4.409,7.386 2.847,7.386 2.084,6.809 2.084,6.028 c 0,-2.326 6.25,-0.428 6.25,-4.26 0,-1.787 -1.637,-2.921 -4.26,-2.921 C 2.438,-1.153 0.819,-0.65 0,0"
             style="fill:#b8b8b8;fill-opacity:1;fill-rule:nonzero;stroke:none"
             id="path24" /></g><g
           id="g26"
           transform="translate(416.4834,385.8784)"><path
             d="m 0,0 -4.781,-10.846 c -0.875,-2.084 -2.01,-2.735 -3.517,-2.735 -0.948,0 -1.916,0.316 -2.529,0.911 l 0.762,1.339 c 0.484,-0.464 1.098,-0.724 1.767,-0.724 0.857,0 1.396,0.39 1.879,1.525 L -6.103,-9.842 -10.456,0 h 1.86 L -5.153,-7.889 -1.749,0 Z"
             style="fill:#b8b8b8;fill-opacity:1;fill-rule:nonzero;stroke:none"
             id="path28" /></g><g
           id="g30"
           transform="translate(418.6436,377.0596)"><path
             d="m 0,0 0.744,1.414 c 0.837,-0.596 2.177,-1.023 3.46,-1.023 1.655,0 2.344,0.502 2.344,1.34 0,2.213 -6.232,0.296 -6.232,4.222 0,1.768 1.581,2.959 4.112,2.959 1.283,0 2.734,-0.335 3.591,-0.894 L 7.255,6.605 C 6.362,7.181 5.376,7.386 4.409,7.386 2.846,7.386 2.084,6.809 2.084,6.028 c 0,-2.326 6.25,-0.428 6.25,-4.26 0,-1.787 -1.637,-2.921 -4.26,-2.921 C 2.437,-1.153 0.818,-0.65 0,0"
             style="fill:#b8b8b8;fill-opacity:1;fill-rule:nonzero;stroke:none"
             id="path32" /></g><g
           id="g34"
           transform="translate(436.6172,376.5952)"><path
             d="m 0,0 c -0.54,-0.465 -1.358,-0.689 -2.159,-0.689 -1.99,0 -3.125,1.098 -3.125,3.089 v 5.413 h -1.674 v 1.47 h 1.674 v 2.158 h 1.786 V 9.283 h 2.828 v -1.47 h -2.828 v -5.34 c 0,-1.06 0.559,-1.655 1.544,-1.655 0.52,0 1.023,0.168 1.395,0.465 z"
             style="fill:#b8b8b8;fill-opacity:1;fill-rule:nonzero;stroke:none"
             id="path36" /></g><g
           id="g38"
           transform="translate(441.1758,381.6357)"><path
             d="M 0,0 H 6.325 C 6.139,1.656 4.893,2.829 3.162,2.829 1.451,2.829 0.186,1.675 0,0 M 8,-1.284 H 0 c 0.224,-1.729 1.619,-2.883 3.572,-2.883 1.154,0 2.12,0.391 2.846,1.191 l 0.986,-1.153 c -0.892,-1.042 -2.251,-1.6 -3.887,-1.6 -3.182,0 -5.302,2.102 -5.302,5.042 0,2.919 2.101,5.022 4.947,5.022 2.848,0 4.875,-2.046 4.875,-5.079 0,-0.149 -0.018,-0.372 -0.037,-0.54"
             style="fill:#b8b8b8;fill-opacity:1;fill-rule:nonzero;stroke:none"
             id="path40" /></g><g
           id="g42"
           transform="translate(469.9209,381.6919)"><path
             d="m 0,0 v -5.674 h -1.786 v 5.469 c 0,1.935 -0.93,2.884 -2.549,2.884 -1.785,0 -2.958,-1.135 -2.958,-3.274 v -5.079 h -1.785 v 5.469 c 0,1.935 -0.931,2.884 -2.549,2.884 -1.786,0 -2.958,-1.135 -2.958,-3.274 v -5.079 h -1.786 v 9.861 h 1.711 V 2.716 c 0.707,1.005 1.917,1.563 3.405,1.563 1.507,0 2.772,-0.595 3.423,-1.823 0.744,1.116 2.12,1.823 3.795,1.823 C -1.638,4.279 0,2.903 0,0"
             style="fill:#b8b8b8;fill-opacity:1;fill-rule:nonzero;stroke:none"
             id="path44" /></g><g
           id="g46"
           transform="translate(473.832,377.0596)"><path
             d="M 0,0 0.744,1.414 C 1.581,0.818 2.92,0.391 4.204,0.391 c 1.655,0 2.344,0.502 2.344,1.34 0,2.213 -6.232,0.296 -6.232,4.222 0,1.768 1.581,2.959 4.112,2.959 1.283,0 2.734,-0.335 3.59,-0.894 L 7.255,6.605 C 6.362,7.181 5.376,7.386 4.409,7.386 2.846,7.386 2.083,6.809 2.083,6.028 2.083,3.702 8.334,5.6 8.334,1.768 8.334,-0.019 6.697,-1.153 4.073,-1.153 2.437,-1.153 0.818,-0.65 0,0"
             style="fill:#b8b8b8;fill-opacity:1;fill-rule:nonzero;stroke:none"
             id="path48" /></g><g
           id="g50"
           transform="translate(448.3203,422.3486)"><path
             d="m 0,0 h -5.515 v 7.022 h -7.93 V 0 h -5.515 v -6.1 h 5.515 v -21.045 h 7.93 V -6.1 L 0,-6.1 Z"
             style="fill:#00368b;fill-opacity:1;fill-rule:nonzero;stroke:none"
             id="path52" /></g><g
           id="g54"
           transform="translate(470.0107,402.2661)"><path
             d="M 0,0 C -0.171,-0.072 -0.347,-0.133 -0.524,-0.191 -0.55,-0.2 -0.574,-0.21 -0.601,-0.218 -1.066,-0.364 -1.556,-0.467 -2.065,-0.516 -2.319,-0.541 -2.577,-0.555 -2.84,-0.555 c -0.263,0 -0.52,0.014 -0.774,0.039 h -0.001 c -0.51,0.05 -0.998,0.152 -1.464,0.298 -0.027,0.008 -0.053,0.019 -0.079,0.027 -0.177,0.058 -0.352,0.119 -0.522,0.191 -2.774,1.124 -4.734,3.84 -4.734,7.019 0,3.178 1.96,5.895 4.734,7.019 0.171,0.071 0.346,0.133 0.524,0.191 0.026,0.008 0.051,0.019 0.076,0.026 0.466,0.147 0.955,0.249 1.465,0.299 h 0.001 c 0.254,0.025 0.511,0.039 0.774,0.039 0.263,0 0.521,-0.014 0.775,-0.039 0.509,-0.05 0.999,-0.152 1.465,-0.299 0.025,-0.007 0.048,-0.017 0.074,-0.025 C -0.348,14.171 -0.172,14.109 0,14.037 2.774,12.913 4.734,10.197 4.734,7.019 4.734,3.841 2.774,1.124 0,0 m -1.468,21.099 c -3.405,0 -6.201,-1.068 -8.234,-3.304 v 9.31 h -7.93 v -33.76 h 7.573 v 3.151 c 1.983,-2.389 4.932,-3.558 8.591,-3.558 7.676,0 13.623,5.49 13.623,14.081 0,8.59 -5.947,14.08 -13.623,14.08"
             style="fill:#00368b;fill-opacity:1;fill-rule:nonzero;stroke:none"
             id="path56" /></g><g
           id="g58"
           transform="translate(415.0625,403.333)"><path
             d="m 0,0 c -1.205,-1.05 -2.781,-1.622 -4.553,-1.622 -0.021,0 -0.042,0.002 -0.064,0.003 -0.02,-0.001 -0.038,-0.003 -0.058,-0.003 -4.183,0 -7.574,3.391 -7.574,7.574 0,4.183 3.391,7.574 7.574,7.574 0.02,0 0.038,-0.003 0.058,-0.003 0.022,0 0.043,0.003 0.064,0.003 1.772,0 3.348,-0.572 4.552,-1.622 1.764,-1.387 2.9,-3.535 2.9,-5.952 C 2.899,3.535 1.763,1.387 0,0 m 2.31,16.728 c -2.034,2.236 -4.83,3.304 -8.235,3.304 -7.676,0 -13.623,-5.49 -13.623,-14.08 0,-8.591 5.947,-14.081 13.623,-14.081 3.659,0 6.609,1.169 8.59,3.558 v -3.151 h 7.574 V 19.016 H 2.31 Z"
             style="fill:#00368b;fill-opacity:1;fill-rule:nonzero;stroke:none"
             id="path60" /></g><g
           id="g62"
           transform="translate(341.6318,393.0786)"><path
             d="m 0,0 c -0.017,-0.5 -0.077,-1.004 -0.179,-1.501 -0.352,-1.727 -1.202,-3.304 -2.458,-4.56 -1.868,-1.868 -4.467,-2.818 -7.097,-2.61 -2.677,0.211 -5.031,1.539 -6.628,3.739 -1.684,2.319 -2.158,5.423 -1.238,8.099 1.011,2.937 3.38,5.142 6.337,5.896 0.627,0.161 1.277,0.253 1.931,0.276 0.179,0.007 0.357,0.019 0.535,0.04 H 0 Z M 29.058,23.144 H 29.057 13.765 v 9.431 c 0,0.096 -0.002,0.192 -0.006,0.297 l -0.029,0.621 c -0.33,5.57 -2.686,10.811 -6.634,14.759 -4.298,4.298 -10.021,6.665 -16.115,6.665 -6.093,0 -11.816,-2.367 -16.114,-6.665 -3.727,-3.728 -6.06,-8.666 -6.568,-13.906 -0.279,-2.881 1.292,-5.649 3.909,-6.887 2.995,-1.415 6.498,-0.548 9.373,2.318 l 0.508,0.507 -0.076,0.714 c -0.304,2.858 0.603,5.518 2.554,7.488 2.683,2.708 6.912,3.456 10.285,1.816 2.962,-1.441 4.931,-4.349 5.133,-7.498 l 0.013,-9.66 h -9.434 c -0.351,-10e-4 -0.704,-0.028 -1.05,-0.082 -1.409,-0.09 -2.815,-0.313 -4.179,-0.661 -3.952,-1.008 -7.572,-3.071 -10.468,-5.966 -4.377,-4.377 -6.743,-10.206 -6.663,-16.413 0.081,-6.203 2.601,-11.969 7.094,-16.236 4.316,-4.098 10.019,-6.17 15.724,-6.17 5.17,0 10.342,1.702 14.484,5.141 4.057,3.368 6.755,7.859 7.803,12.987 0.256,1.261 0.404,2.521 0.451,3.871 l 0.005,9.764 H 29.29 c 1.935,0 3.79,0.821 5.092,2.253 1.302,1.431 1.942,3.363 1.758,5.3 -0.333,3.484 -3.444,6.212 -7.082,6.212"
             style="fill:#b8b8b8;fill-opacity:1;fill-rule:nonzero;stroke:none"
             id="path64" /></g><g
           id="g66"
           transform="translate(392.6846,416.2222)"><path
             d="m 0,0 c -3.801,0 -6.882,-3.081 -6.882,-6.882 0,-3.801 3.081,-6.883 6.882,-6.883 3.801,0 6.883,3.082 6.883,6.883 C 6.883,-3.081 3.801,0 0,0"
             style="fill:#b8b8b8;fill-opacity:1;fill-rule:nonzero;stroke:none"
             id="path68" /></g><g
           id="g70"
           transform="translate(201.3809,87.1357)"><path
             d="M 0,0 0.744,1.414 C 1.582,0.817 2.92,0.391 4.204,0.391 c 1.656,0 2.344,0.502 2.344,1.339 0,2.213 -6.232,0.297 -6.232,4.223 0,1.768 1.581,2.958 4.112,2.958 1.283,0 2.734,-0.335 3.59,-0.893 L 7.255,6.604 C 6.363,7.181 5.376,7.386 4.409,7.386 2.846,7.386 2.083,6.808 2.083,6.027 2.083,3.702 8.334,5.599 8.334,1.768 8.334,-0.02 6.697,-1.154 4.074,-1.154 2.437,-1.154 0.819,-0.651 0,0"
             style="fill:#ffb800;fill-opacity:1;fill-rule:nonzero;stroke:none"
             id="path72" /></g><g
           id="g74"
           transform="translate(222.3491,95.9541)"><path
             d="m 0,0 -4.781,-10.847 c -0.875,-2.083 -2.01,-2.734 -3.516,-2.734 -0.949,0 -1.916,0.316 -2.53,0.911 l 0.762,1.34 c 0.484,-0.465 1.098,-0.726 1.768,-0.726 0.856,0 1.395,0.392 1.879,1.527 L -6.102,-9.842 -10.455,0 h 1.86 L -5.153,-7.889 -1.749,0 Z"
             style="fill:#ffb800;fill-opacity:1;fill-rule:nonzero;stroke:none"
             id="path76" /></g><g
           id="g78"
           transform="translate(224.5093,87.1357)"><path
             d="m 0,0 0.745,1.414 c 0.837,-0.597 2.176,-1.023 3.46,-1.023 1.655,0 2.343,0.502 2.343,1.339 0,2.213 -6.231,0.297 -6.231,4.223 0,1.768 1.581,2.958 4.111,2.958 1.284,0 2.735,-0.335 3.591,-0.893 L 7.255,6.604 C 6.363,7.181 5.376,7.386 4.409,7.386 2.846,7.386 2.084,6.808 2.084,6.027 c 0,-2.325 6.25,-0.428 6.25,-4.259 0,-1.788 -1.636,-2.922 -4.26,-2.922 C 2.437,-1.154 0.819,-0.651 0,0"
             style="fill:#ffb800;fill-opacity:1;fill-rule:nonzero;stroke:none"
             id="path80" /></g><g
           id="g82"
           transform="translate(242.4829,86.6709)"><path
             d="m 0,0 c -0.54,-0.466 -1.358,-0.689 -2.159,-0.689 -1.989,0 -3.124,1.097 -3.124,3.088 v 5.413 h -1.675 v 1.471 h 1.675 v 2.157 h 1.785 V 9.283 H -0.67 V 7.812 H -3.498 V 2.474 c 0,-1.061 0.559,-1.656 1.544,-1.656 0.521,0 1.023,0.167 1.396,0.464 z"
             style="fill:#ffb800;fill-opacity:1;fill-rule:nonzero;stroke:none"
             id="path84" /></g><g
           id="g86"
           transform="translate(247.042,91.7119)"><path
             d="M 0,0 H 6.325 C 6.139,1.656 4.893,2.828 3.163,2.828 1.451,2.828 0.186,1.675 0,0 M 8,-1.284 H 0 c 0.223,-1.73 1.619,-2.883 3.572,-2.883 1.154,0 2.121,0.39 2.846,1.19 L 7.404,-4.13 c -0.893,-1.041 -2.251,-1.6 -3.888,-1.6 -3.181,0 -5.302,2.102 -5.302,5.042 0,2.919 2.102,5.023 4.949,5.023 2.846,0 4.874,-2.047 4.874,-5.079 0,-0.149 -0.019,-0.372 -0.037,-0.54"
             style="fill:#ffb800;fill-opacity:1;fill-rule:nonzero;stroke:none"
             id="path88" /></g><g
           id="g90"
           transform="translate(275.7871,91.7676)"><path
             d="m 0,0 v -5.674 h -1.786 v 5.469 c 0,1.935 -0.93,2.884 -2.549,2.884 -1.786,0 -2.957,-1.135 -2.957,-3.274 v -5.079 h -1.787 v 5.469 c 0,1.935 -0.93,2.884 -2.548,2.884 -1.787,0 -2.958,-1.135 -2.958,-3.274 v -5.079 h -1.787 v 9.861 h 1.712 V 2.716 c 0.707,1.005 1.916,1.563 3.405,1.563 1.506,0 2.772,-0.595 3.423,-1.823 0.744,1.115 2.121,1.823 3.794,1.823 C -1.638,4.279 0,2.902 0,0"
             style="fill:#ffb800;fill-opacity:1;fill-rule:nonzero;stroke:none"
             id="path92" /></g><g
           id="g94"
           transform="translate(279.6978,87.1357)"><path
             d="M 0,0 0.744,1.414 C 1.582,0.817 2.92,0.391 4.204,0.391 c 1.656,0 2.344,0.502 2.344,1.339 0,2.213 -6.232,0.297 -6.232,4.223 0,1.768 1.581,2.958 4.112,2.958 1.283,0 2.734,-0.335 3.59,-0.893 L 7.255,6.604 C 6.363,7.181 5.376,7.386 4.409,7.386 2.846,7.386 2.084,6.808 2.084,6.027 c 0,-2.325 6.25,-0.428 6.25,-4.259 0,-1.788 -1.637,-2.922 -4.26,-2.922 C 2.437,-1.154 0.819,-0.651 0,0"
             style="fill:#ffb800;fill-opacity:1;fill-rule:nonzero;stroke:none"
             id="path96" /></g><g
           id="g98"
           transform="translate(254.1865,132.4238)"><path
             d="m 0,0 h -5.515 v 7.023 h -7.93 V 0 h -5.515 v -6.1 h 5.515 v -21.044 h 7.93 V -6.1 L 0,-6.1 Z"
             style="fill:#f8f6f4;fill-opacity:1;fill-rule:nonzero;stroke:none"
             id="path100" /></g><g
           id="g102"
           transform="translate(275.8765,112.3418)"><path
             d="M 0,0 C -0.17,-0.071 -0.346,-0.134 -0.524,-0.191 -0.55,-0.2 -0.574,-0.21 -0.6,-0.218 -1.066,-0.364 -1.555,-0.467 -2.065,-0.517 -2.319,-0.541 -2.577,-0.556 -2.84,-0.556 c -0.263,0 -0.52,0.015 -0.774,0.039 h -0.001 c -0.51,0.05 -0.998,0.153 -1.464,0.298 -0.027,0.009 -0.052,0.02 -0.079,0.028 -0.176,0.058 -0.352,0.12 -0.521,0.191 -2.775,1.124 -4.735,3.841 -4.735,7.019 0,3.178 1.96,5.894 4.735,7.018 0.17,0.072 0.346,0.134 0.523,0.192 0.026,0.008 0.051,0.018 0.076,0.026 0.467,0.146 0.955,0.249 1.465,0.299 h 0.001 c 0.254,0.024 0.511,0.039 0.774,0.039 0.263,0 0.521,-0.015 0.775,-0.039 0.51,-0.05 0.999,-0.153 1.465,-0.299 0.025,-0.007 0.049,-0.018 0.074,-0.026 C -0.348,14.171 -0.171,14.109 0,14.037 2.775,12.913 4.734,10.196 4.734,7.019 4.734,3.841 2.775,1.124 0,0 m -1.467,21.1 c -3.406,0 -6.202,-1.069 -8.235,-3.305 v 9.31 h -7.93 v -33.76 h 7.574 v 3.151 c 1.982,-2.389 4.931,-3.558 8.591,-3.558 7.675,0 13.623,5.49 13.623,14.081 0,8.59 -5.948,14.081 -13.623,14.081"
             style="fill:#f8f6f4;fill-opacity:1;fill-rule:nonzero;stroke:none"
             id="path104" /></g><g
           id="g106"
           transform="translate(220.9282,113.4092)"><path
             d="m 0,0 c -1.205,-1.051 -2.781,-1.623 -4.552,-1.623 -0.022,0 -0.043,0.003 -0.065,0.003 -0.019,0 -0.038,-0.003 -0.057,-0.003 -4.183,0 -7.575,3.392 -7.575,7.574 0,4.183 3.392,7.574 7.575,7.574 0.019,0 0.038,-0.003 0.057,-0.003 0.022,0 0.043,0.003 0.065,0.003 1.771,0 3.347,-0.572 4.552,-1.622 C 1.763,10.517 2.899,8.368 2.899,5.951 2.899,3.534 1.763,1.387 0,0 m 2.31,16.728 c -2.033,2.236 -4.829,3.304 -8.235,3.304 -7.676,0 -13.622,-5.49 -13.622,-14.081 0,-8.591 5.946,-14.08 13.622,-14.08 3.66,0 6.609,1.169 8.591,3.558 V -7.723 H 10.24 V 19.015 H 2.31 Z"
             style="fill:#f8f6f4;fill-opacity:1;fill-rule:nonzero;stroke:none"
             id="path108" /></g><g
           id="g110"
           transform="translate(147.498,103.1543)"><path
             d="m 0,0 c -0.017,-0.5 -0.077,-1.004 -0.179,-1.501 -0.352,-1.727 -1.202,-3.304 -2.458,-4.56 -1.868,-1.868 -4.467,-2.818 -7.097,-2.61 -2.677,0.211 -5.031,1.539 -6.628,3.739 -1.684,2.32 -2.158,5.423 -1.238,8.099 1.011,2.937 3.38,5.143 6.337,5.896 0.627,0.162 1.277,0.253 1.931,0.277 0.179,0.006 0.357,0.018 0.535,0.039 H 0 Z M 29.058,23.144 H 29.057 13.765 v 9.431 c 0,0.097 -0.002,0.192 -0.006,0.297 l -0.029,0.621 c -0.33,5.57 -2.686,10.812 -6.634,14.759 -4.298,4.298 -10.021,6.665 -16.115,6.665 -6.093,0 -11.816,-2.367 -16.114,-6.665 -3.727,-3.728 -6.06,-8.666 -6.568,-13.905 -0.279,-2.882 1.292,-5.65 3.909,-6.887 2.995,-1.415 6.498,-0.549 9.373,2.317 l 0.508,0.507 -0.076,0.714 c -0.304,2.858 0.603,5.518 2.554,7.488 2.683,2.708 6.912,3.456 10.285,1.816 2.962,-1.441 4.931,-4.349 5.133,-7.498 l 0.013,-9.66 h -9.434 c -0.351,0 -0.704,-0.028 -1.05,-0.082 -1.409,-0.09 -2.815,-0.313 -4.179,-0.661 -3.952,-1.007 -7.572,-3.071 -10.468,-5.966 -4.377,-4.377 -6.743,-10.206 -6.663,-16.413 0.081,-6.203 2.601,-11.969 7.094,-16.236 4.316,-4.098 10.019,-6.17 15.724,-6.17 5.17,0 10.342,1.702 14.484,5.142 4.057,3.368 6.755,7.858 7.803,12.986 0.256,1.261 0.404,2.521 0.451,3.871 l 0.005,9.764 H 29.29 c 1.935,0 3.79,0.821 5.092,2.253 1.302,1.431 1.942,3.363 1.758,5.301 -0.333,3.483 -3.444,6.211 -7.082,6.211"
             style="fill:#ffb800;fill-opacity:1;fill-rule:nonzero;stroke:none"
             id="path112" /></g><g
           id="g114"
           transform="translate(198.5508,126.2979)"><path
             d="m 0,0 c -3.801,0 -6.882,-3.081 -6.882,-6.882 0,-3.802 3.081,-6.883 6.882,-6.883 3.801,0 6.882,3.081 6.882,6.883 C 6.882,-3.081 3.801,0 0,0"
             style="fill:#ffb800;fill-opacity:1;fill-rule:nonzero;stroke:none"
             id="path116" /></g><g
           id="g118"
           transform="translate(604.3906,87.1357)"><path
             d="m 0,0 0.745,1.414 c 0.837,-0.597 2.176,-1.023 3.46,-1.023 1.655,0 2.344,0.502 2.344,1.339 0,2.213 -6.232,0.297 -6.232,4.223 0,1.768 1.581,2.958 4.112,2.958 1.283,0 2.734,-0.335 3.59,-0.893 L 7.256,6.604 C 6.363,7.181 5.377,7.386 4.409,7.386 2.847,7.386 2.084,6.808 2.084,6.027 2.084,3.702 8.335,5.599 8.335,1.768 8.335,-0.02 6.698,-1.154 4.074,-1.154 2.438,-1.154 0.819,-0.651 0,0"
             style="fill:#ffb800;fill-opacity:1;fill-rule:nonzero;stroke:none"
             id="path120" /></g><g
           id="g122"
           transform="translate(625.3594,95.9541)"><path
             d="m 0,0 -4.781,-10.847 c -0.874,-2.083 -2.009,-2.734 -3.517,-2.734 -0.948,0 -1.915,0.316 -2.529,0.911 l 0.763,1.34 c 0.483,-0.465 1.097,-0.726 1.766,-0.726 0.857,0 1.396,0.392 1.88,1.527 L -6.102,-9.842 -10.455,0 h 1.86 L -5.153,-7.889 -1.749,0 Z"
             style="fill:#ffb800;fill-opacity:1;fill-rule:nonzero;stroke:none"
             id="path124" /></g><g
           id="g126"
           transform="translate(627.5195,87.1357)"><path
             d="M 0,0 0.744,1.414 C 1.582,0.817 2.921,0.391 4.205,0.391 c 1.655,0 2.344,0.502 2.344,1.339 0,2.213 -6.233,0.297 -6.233,4.223 0,1.768 1.581,2.958 4.112,2.958 1.284,0 2.734,-0.335 3.591,-0.893 L 7.256,6.604 C 6.363,7.181 5.377,7.386 4.409,7.386 2.847,7.386 2.084,6.808 2.084,6.027 2.084,3.702 8.335,5.599 8.335,1.768 8.335,-0.02 6.697,-1.154 4.074,-1.154 2.438,-1.154 0.819,-0.651 0,0"
             style="fill:#ffb800;fill-opacity:1;fill-rule:nonzero;stroke:none"
             id="path128" /></g><g
           id="g130"
           transform="translate(645.4932,86.6709)"><path
             d="m 0,0 c -0.539,-0.466 -1.358,-0.689 -2.158,-0.689 -1.99,0 -3.125,1.097 -3.125,3.088 v 5.413 h -1.675 v 1.471 h 1.675 v 2.157 h 1.786 V 9.283 H -0.67 V 7.812 H -3.497 V 2.474 c 0,-1.061 0.558,-1.656 1.544,-1.656 0.52,0 1.022,0.167 1.395,0.464 z"
             style="fill:#ffb800;fill-opacity:1;fill-rule:nonzero;stroke:none"
             id="path132" /></g><g
           id="g134"
           transform="translate(650.0527,91.7119)"><path
             d="M 0,0 H 6.325 C 6.139,1.656 4.892,2.828 3.162,2.828 1.45,2.828 0.186,1.675 0,0 M 7.999,-1.284 H 0 c 0.223,-1.73 1.618,-2.883 3.571,-2.883 1.154,0 2.121,0.39 2.847,1.19 L 7.403,-4.13 c -0.892,-1.041 -2.251,-1.6 -3.887,-1.6 -3.182,0 -5.302,2.102 -5.302,5.042 0,2.919 2.101,5.023 4.948,5.023 2.847,0 4.874,-2.047 4.874,-5.079 0,-0.149 -0.018,-0.372 -0.037,-0.54"
             style="fill:#ffb800;fill-opacity:1;fill-rule:nonzero;stroke:none"
             id="path136" /></g><g
           id="g138"
           transform="translate(678.7979,91.7676)"><path
             d="m 0,0 v -5.674 h -1.786 v 5.469 c 0,1.935 -0.931,2.884 -2.549,2.884 -1.786,0 -2.958,-1.135 -2.958,-3.274 v -5.079 h -1.786 v 5.469 c 0,1.935 -0.931,2.884 -2.549,2.884 -1.786,0 -2.958,-1.135 -2.958,-3.274 v -5.079 h -1.786 v 9.861 h 1.712 V 2.716 c 0.707,1.005 1.916,1.563 3.404,1.563 1.507,0 2.773,-0.595 3.423,-1.823 0.745,1.115 2.121,1.823 3.795,1.823 C -1.638,4.279 0,2.902 0,0"
             style="fill:#ffb800;fill-opacity:1;fill-rule:nonzero;stroke:none"
             id="path140" /></g><g
           id="g142"
           transform="translate(682.708,87.1357)"><path
             d="m 0,0 0.744,1.414 c 0.838,-0.597 2.177,-1.023 3.46,-1.023 1.656,0 2.345,0.502 2.345,1.339 0,2.213 -6.233,0.297 -6.233,4.223 0,1.768 1.581,2.958 4.112,2.958 1.284,0 2.734,-0.335 3.591,-0.893 L 7.256,6.604 C 6.362,7.181 5.376,7.386 4.409,7.386 2.846,7.386 2.084,6.808 2.084,6.027 c 0,-2.325 6.25,-0.428 6.25,-4.259 0,-1.788 -1.637,-2.922 -4.26,-2.922 C 2.438,-1.154 0.818,-0.651 0,0"
             style="fill:#ffb800;fill-opacity:1;fill-rule:nonzero;stroke:none"
             id="path144" /></g><g
           id="g146"
           transform="translate(657.1973,132.4238)"><path
             d="m 0,0 h -5.516 v 7.023 h -7.929 V 0 h -5.516 v -6.1 h 5.516 v -21.044 h 7.929 V -6.1 L 0,-6.1 Z"
             style="fill:#00368b;fill-opacity:1;fill-rule:nonzero;stroke:none"
             id="path148" /></g><g
           id="g150"
           transform="translate(678.8867,112.3418)"><path
             d="M 0,0 C -0.17,-0.071 -0.346,-0.134 -0.523,-0.191 -0.55,-0.2 -0.574,-0.21 -0.6,-0.218 -1.066,-0.364 -1.555,-0.467 -2.065,-0.517 -2.319,-0.541 -2.577,-0.556 -2.84,-0.556 c -0.263,0 -0.52,0.015 -0.774,0.039 -0.511,0.05 -0.999,0.153 -1.465,0.298 -0.026,0.009 -0.052,0.02 -0.079,0.028 -0.177,0.058 -0.352,0.12 -0.521,0.191 -2.775,1.124 -4.735,3.841 -4.735,7.019 0,3.178 1.96,5.894 4.735,7.018 0.17,0.072 0.346,0.134 0.524,0.192 0.025,0.008 0.05,0.018 0.076,0.026 0.466,0.146 0.954,0.249 1.465,0.299 0.254,0.024 0.511,0.039 0.774,0.039 0.263,0 0.521,-0.015 0.775,-0.039 0.51,-0.05 0.999,-0.153 1.465,-0.299 0.026,-0.007 0.049,-0.018 0.074,-0.026 C -0.348,14.171 -0.171,14.109 0,14.037 2.774,12.913 4.734,10.196 4.734,7.019 4.734,3.841 2.775,1.124 0,0 m -1.467,21.1 c -3.406,0 -6.202,-1.069 -8.235,-3.305 v 9.31 h -7.93 v -33.76 h 7.574 v 3.151 c 1.983,-2.389 4.931,-3.558 8.591,-3.558 7.676,0 13.622,5.49 13.622,14.081 0,8.59 -5.946,14.081 -13.622,14.081"
             style="fill:#00368b;fill-opacity:1;fill-rule:nonzero;stroke:none"
             id="path152" /></g><g
           id="g154"
           transform="translate(623.9385,113.4092)"><path
             d="m 0,0 c -1.204,-1.051 -2.78,-1.623 -4.552,-1.623 -0.022,0 -0.043,0.003 -0.064,0.003 -0.02,0 -0.039,-0.003 -0.059,-0.003 -4.182,0 -7.573,3.392 -7.573,7.574 0,4.183 3.391,7.574 7.573,7.574 0.02,0 0.039,-0.003 0.059,-0.003 0.021,0 0.042,0.003 0.064,0.003 1.772,0 3.347,-0.572 4.552,-1.622 C 1.763,10.517 2.899,8.368 2.899,5.951 2.899,3.534 1.764,1.387 0,0 m 2.311,16.728 c -2.034,2.236 -4.83,3.304 -8.236,3.304 -7.676,0 -13.623,-5.49 -13.623,-14.081 0,-8.591 5.947,-14.08 13.623,-14.08 3.66,0 6.609,1.169 8.591,3.558 V -7.723 H 10.24 V 19.015 H 2.311 Z"
             style="fill:#00368b;fill-opacity:1;fill-rule:nonzero;stroke:none"
             id="path156" /></g><g
           id="g158"
           transform="translate(550.5078,103.1543)"><path
             d="m 0,0 c -0.017,-0.5 -0.077,-1.004 -0.179,-1.501 -0.352,-1.727 -1.202,-3.304 -2.458,-4.56 -1.868,-1.868 -4.467,-2.818 -7.097,-2.61 -2.677,0.211 -5.031,1.539 -6.628,3.739 -1.684,2.32 -2.158,5.423 -1.238,8.099 1.011,2.937 3.38,5.143 6.337,5.896 0.627,0.162 1.277,0.253 1.931,0.277 0.179,0.006 0.357,0.018 0.535,0.039 H 0 Z M 29.058,23.144 H 29.057 13.765 v 9.431 c 0,0.097 -0.002,0.192 -0.006,0.297 l -0.029,0.621 c -0.33,5.57 -2.686,10.812 -6.634,14.759 -4.298,4.298 -10.021,6.665 -16.115,6.665 -6.093,0 -11.816,-2.367 -16.114,-6.665 -3.727,-3.728 -6.06,-8.666 -6.568,-13.905 -0.279,-2.882 1.292,-5.65 3.909,-6.887 2.995,-1.415 6.498,-0.549 9.373,2.317 l 0.508,0.507 -0.076,0.714 c -0.304,2.858 0.603,5.518 2.554,7.488 2.683,2.708 6.912,3.456 10.285,1.816 2.962,-1.441 4.931,-4.349 5.133,-7.498 l 0.013,-9.66 h -9.434 c -0.351,0 -0.704,-0.028 -1.05,-0.082 -1.409,-0.09 -2.815,-0.313 -4.179,-0.661 -3.952,-1.007 -7.572,-3.071 -10.468,-5.966 -4.377,-4.377 -6.743,-10.206 -6.663,-16.413 0.081,-6.203 2.601,-11.969 7.094,-16.236 4.316,-4.098 10.019,-6.17 15.724,-6.17 5.17,0 10.342,1.702 14.484,5.142 4.057,3.368 6.755,7.858 7.803,12.986 0.256,1.261 0.404,2.521 0.451,3.871 l 0.005,9.764 H 29.29 c 1.935,0 3.79,0.821 5.092,2.253 1.302,1.431 1.942,3.363 1.758,5.301 -0.333,3.483 -3.444,6.211 -7.082,6.211"
             style="fill:#ffb800;fill-opacity:1;fill-rule:nonzero;stroke:none"
             id="path160" /></g><g
           id="g162"
           transform="translate(601.5605,126.2979)"><path
             d="m 0,0 c -3.801,0 -6.882,-3.081 -6.882,-6.882 0,-3.802 3.081,-6.883 6.882,-6.883 3.802,0 6.883,3.081 6.883,6.883 C 6.883,-3.081 3.802,0 0,0"
             style="fill:#ffb800;fill-opacity:1;fill-rule:nonzero;stroke:none"
             id="path164" /></g></g></g></g></svg>
